<?xml version="1.0" encoding="iso-8859-1"?>
<!-- Generator: Adobe Illustrator 19.0.0, SVG Export Plug-In . SVG Version: 6.00 Build 0)  -->
<svg version="1.1" id="Layer_1" xmlns="http://www.w3.org/2000/svg" xmlns:xlink="http://www.w3.org/1999/xlink" x="0px" y="0px"
	 viewBox="0 0 511.999 511.999" style="enable-background:new 0 0 511.999 511.999;" xml:space="preserve">
<g>
	<g>
		<path d="M108.185,47.252c-41.825-23.369-83.806,22.22-60.757,60.956c-120.466,170.279,4.994,403.792,208.26,403.792
			c140.602,0,255.986-115.384,255.986-255.986C511.674,49.4,276.309-72.526,108.185,47.252z M319.834,136.101
			c-10.315,34.553,21.252,66.058,55.767,55.769c10.355,19.412,16.079,41.904,16.079,64.144c0,60.2-41.239,113.283-98.035,130.02
			c-1.983-3.505-4.274-6.85-7.198-9.773l-0.015-0.015c-18.846-18.846-54.551-17.742-70.411,8.995
			c-9.938-3.073-19.375-7.267-28.339-12.564l36.006-48.007c9.948,4.72,20.752,7.341,31.999,7.341
			c41.351,0,75.996-34.645,75.996-75.996s-34.645-75.996-75.996-75.996c-40.787,0-78.243,34.675-74.038,82.546l-58.536,18.561
			C102.933,169.95,220.62,83.162,319.834,136.101z M251.382,241.644l-40.466,12.139c1.19-23.759,20.723-43.768,44.773-43.768
			c60.437,0,60.484,91.995,0,91.995c-4.62,0-9.096-0.813-13.393-2.151l25.39-34.852
			C276.351,253.506,265.174,237.503,251.382,241.644z M133.115,445.432l36.084-48.11c12.844,7.963,26.624,13.97,41.144,18.114
			c3.65,22.169,22.552,37.637,44.277,37.637c21.876,0,41.572-15.592,45.26-37.449c71.109-19.386,121.8-84.905,121.8-159.61
			c0-28.575-7.733-57.165-21.693-81.826c26.86-39.478-18.864-89.195-61.53-61.94C215.78,41.735,66.149,150.446,94.383,289.743
			l-57.865,17.36c-14.382-62.929-1.529-127.421,34.526-179.498c35.81,12.626,69.85-21.458,57.236-57.236
			c149.797-103.711,353.397,5.534,353.397,185.645C481.675,433.786,282.629,543.023,133.115,445.432z"/>
	</g>
</g>
<g>
</g>
<g>
</g>
<g>
</g>
<g>
</g>
<g>
</g>
<g>
</g>
<g>
</g>
<g>
</g>
<g>
</g>
<g>
</g>
<g>
</g>
<g>
</g>
<g>
</g>
<g>
</g>
<g>
</g>
</svg>
